<svg width="16" height="14" viewBox="0 0 16 14" fill="none" xmlns="http://www.w3.org/2000/svg">
<path d="M16 1.87231C15.405 2.13331 14.771 2.30631 14.11 2.39031C14.79 1.98431 15.309 1.34631 15.553 0.577313C14.919 0.955313 14.219 1.22231 13.473 1.37131C12.871 0.730313 12.013 0.333313 11.077 0.333313C9.261 0.333313 7.799 1.80731 7.799 3.61431C7.799 3.87431 7.821 4.12431 7.875 4.36231C5.148 4.22931 2.735 2.92231 1.114 0.931313C0.831 1.42231 0.665 1.98431 0.665 2.58931C0.665 3.72531 1.25 4.73231 2.122 5.31531C1.595 5.30531 1.078 5.15231 0.64 4.91131C0.64 4.92131 0.64 4.93431 0.64 4.94731C0.64 6.54131 1.777 7.86531 3.268 8.17031C3.001 8.24331 2.71 8.27831 2.408 8.27831C2.198 8.27831 1.986 8.26631 1.787 8.22231C2.212 9.52131 3.418 10.4763 4.852 10.5073C3.736 11.3803 2.319 11.9063 0.785 11.9063C0.516 11.9063 0.258 11.8943 0 11.8613C1.453 12.7983 3.175 13.3333 5.032 13.3333C11.068 13.3333 14.368 8.33331 14.368 3.99931C14.368 3.85431 14.363 3.71431 14.356 3.57531C15.007 3.11331 15.554 2.53631 16 1.87231Z" fill="#B0B8BC"/>
</svg>
