<svg width="16" height="12" viewBox="0 0 16 12" fill="none" xmlns="http://www.w3.org/2000/svg">
<path fill-rule="evenodd" clip-rule="evenodd" d="M13.456 0.758687C14.415 0.812687 14.886 0.954687 15.32 1.72669C15.772 2.49769 16 3.82569 16 6.16469V6.16769V6.17269C16 8.50069 15.772 9.83869 15.321 10.6017C14.887 11.3737 14.416 11.5137 13.457 11.5787C12.498 11.6337 10.089 11.6667 8.002 11.6667C5.911 11.6667 3.501 11.6337 2.543 11.5777C1.586 11.5127 1.115 11.3727 0.677 10.6007C0.23 9.83769 0 8.49969 0 6.17169V6.16969V6.16669V6.16369C0 3.82569 0.23 2.49769 0.677 1.72669C1.115 0.953687 1.587 0.812687 2.544 0.757687C3.501 0.693687 5.911 0.666687 8.002 0.666687C10.089 0.666687 12.498 0.693687 13.456 0.758687ZM11 6.16669L6 3.16669V9.16669L11 6.16669Z" fill="#B0B8BC"/>
</svg>
